<mxfile host="app.diagrams.net" modified="2023-04-25T13:24:25.117Z" agent="Mozilla/5.0 (Windows NT 10.0; Win64; x64) AppleWebKit/537.36 (KHTML, like Gecko) Chrome/112.0.0.0 Safari/537.36" version="21.2.1" etag="wxkb48kqRw3WtU5omnpT" type="github">
  <diagram name="Page-1" id="NYYK2rT18FibjrhqJswV">
    <mxGraphModel>
      <root>
        <mxCell id="0" />
        <mxCell id="1" parent="0" />
      </root>
    </mxGraphModel>
  </diagram>
</mxfile>
